<svg xmlns="http://www.w3.org/2000/svg" viewBox="331.83 267 13.359 13.39"><defs><style>.a{fill:#fff;}</style></defs><g transform="translate(315 250.22)"><path class="a" d="M29.585,18.691H25.844v-.3a1.611,1.611,0,0,0-1.611-1.611H22.787a1.611,1.611,0,0,0-1.611,1.611v.3H17.434a.6.6,0,0,0,0,1.208h1.2l.014,7.652a2.618,2.618,0,0,0,2.618,2.618h4.491a2.618,2.618,0,0,0,2.618-2.618l.014-7.652h1.2a.6.6,0,0,0,0-1.208Zm-7.2-.3a.4.4,0,0,1,.4-.4h1.446a.4.4,0,0,1,.4.4v.3H22.384Zm4.781,9.153a1.41,1.41,0,0,1-1.41,1.41H21.264a1.41,1.41,0,0,1-1.41-1.41l-.014-7.652h7.338Z" transform="translate(0 0)"/><path class="a" d="M41.6,41.53a.6.6,0,0,0-.6.6v4.007a.6.6,0,0,0,1.208,0V42.134A.6.6,0,0,0,41.6,41.53Z" transform="translate(-19.303 -19.766)"/><path class="a" d="M53.6,41.53a.6.6,0,0,0-.6.6v4.007a.6.6,0,1,0,1.208,0V42.134A.6.6,0,0,0,53.6,41.53Z" transform="translate(-28.886 -19.766)"/></g></svg>