<svg xmlns="http://www.w3.org/2000/svg" viewBox="271.481 267 10.709 12.994"><defs><style>.a{fill:#fff;fill-rule:evenodd;}</style></defs><g transform="translate(614 441.001)"><g transform="translate(-342.519 -174.001)"><path class="a" d="M375.016,111.331l-1.432-1.432h0a.487.487,0,0,0-.689,0h0a.487.487,0,0,0,0,.689h0l2.263,2.263a.487.487,0,0,0,.689,0l2.26-2.26a.487.487,0,0,0-.689-.689l-1.426,1.426v-7.592a.487.487,0,1,0-.975,0Zm-4.243-9.67,1.432,1.432a.487.487,0,0,0,.689,0h0a.487.487,0,0,0,0-.689l-2.262-2.263a.488.488,0,0,0-.689,0l-2.26,2.26a.488.488,0,0,0,.689.689l1.426-1.426v7.592a.487.487,0,1,0,.975,0Z" transform="translate(-367.539 -99.999)"/></g></g></svg>